/* XPM */
static char * logo_bw_xpm[] = {
"56 56 140 2",
"  	c None",
". 	c #292929",
"+ 	c #3C3C3C",
"@ 	c #868686",
"# 	c #AEAEAE",
"$ 	c #A1A1A1",
"% 	c #626262",
"& 	c #252525",
"* 	c #212121",
"= 	c #383838",
"- 	c #BABABA",
"; 	c #757575",
"> 	c #2D2D2D",
", 	c #333333",
"' 	c #828282",
") 	c #2E2E2E",
"! 	c #1D1D1D",
"~ 	c #BDBDBD",
"{ 	c #AAAAAA",
"] 	c #474747",
"^ 	c #202020",
"/ 	c #6B6B6B",
"( 	c #DDDDDD",
"_ 	c #FFFFFF",
": 	c #E3E3E3",
"< 	c #9E9E9E",
"[ 	c #363636",
"} 	c #1F1F1F",
"| 	c #A0A0A0",
"1 	c #B0B0B0",
"2 	c #404040",
"3 	c #222222",
"4 	c #8F8F8F",
"5 	c #FCFCFC",
"6 	c #4A4A4A",
"7 	c #B8B8B8",
"8 	c #5D5D5D",
"9 	c #858585",
"0 	c #D8D8D8",
"a 	c #ECECEC",
"b 	c #E5E5E5",
"c 	c #747474",
"d 	c #232323",
"e 	c #262626",
"f 	c #494949",
"g 	c #2F2F2F",
"h 	c #909090",
"i 	c #696969",
"j 	c #D3D3D3",
"k 	c #CCCCCC",
"l 	c #D5D5D5",
"m 	c #B9B9B9",
"n 	c #414141",
"o 	c #545454",
"p 	c #9F9F9F",
"q 	c #C4C4C4",
"r 	c #959595",
"s 	c #2C2C2C",
"t 	c #4C4C4C",
"u 	c #3A3A3A",
"v 	c #C2C2C2",
"w 	c #D0D0D0",
"x 	c #D4D4D4",
"y 	c #2B2B2B",
"z 	c #838383",
"A 	c #C8C8C8",
"B 	c #CACACA",
"C 	c #969696",
"D 	c #878787",
"E 	c #D2D2D2",
"F 	c #B6B6B6",
"G 	c #575757",
"H 	c #CBCBCB",
"I 	c #C6C6C6",
"J 	c #979797",
"K 	c #1E1E1E",
"L 	c #ADADAD",
"M 	c #D7D7D7",
"N 	c #686868",
"O 	c #535353",
"P 	c #989898",
"Q 	c #4D4D4D",
"R 	c #C5C5C5",
"S 	c #4E4E4E",
"T 	c #4B4B4B",
"U 	c #303030",
"V 	c #4F4F4F",
"W 	c #818181",
"X 	c #939393",
"Y 	c #919191",
"Z 	c #646464",
"` 	c #313131",
" .	c #929292",
"..	c #8E8E8E",
"+.	c #9A9A9A",
"@.	c #949494",
"#.	c #636363",
"$.	c #C3C3C3",
"%.	c #7F7F7F",
"&.	c #616161",
"*.	c #9B9B9B",
"=.	c #353535",
"-.	c #505050",
";.	c #606060",
">.	c #CDCDCD",
",.	c #A4A4A4",
"'.	c #373737",
").	c #343434",
"!.	c #7E7E7E",
"~.	c #C1C1C1",
"{.	c #B3B3B3",
"].	c #3E3E3E",
"^.	c #323232",
"/.	c #808080",
"(.	c #393939",
"_.	c #565656",
":.	c #444444",
"<.	c #515151",
"[.	c #7A7A7A",
"}.	c #454545",
"|.	c #E0E0E0",
"1.	c #1C1C1C",
"2.	c #797979",
"3.	c #DADADA",
"4.	c #D6D6D6",
"5.	c #787878",
"6.	c #6F6F6F",
"7.	c #767676",
"8.	c #727272",
"9.	c #DBDBDB",
"0.	c #1B1B1B",
"a.	c #898989",
"b.	c #A5A5A5",
"c.	c #6D6D6D",
"d.	c #272727",
"e.	c #525252",
"f.	c #7D7D7D",
"g.	c #A9A9A9",
"h.	c #C9C9C9",
"i.	c #242424",
"                                                                                                                ",
"                                                                                                                ",
"                                                                                                                ",
"                                                                                                                ",
"                                                                                                                ",
"                                                                                                                ",
"                                                                                                                ",
"                                                                                                                ",
"                                                                                                                ",
"                                                                                                                ",
"                                                                                                                ",
"                                                                                                                ",
"                                                                                                                ",
"                                      . . . .                                                                   ",
"                                  . . . . . . . .                                                               ",
"                                + . @ # $ % & . * .                                                             ",
"                              = . - - ; > , ; ' ) ! .                                                           ",
"                            . . ~ { ] ^ / ( _ : < [ } .                                                         ",
"                            . | 1 2 3 4 _ _ _ 5 1 6 * } .                                                       ",
"                          . . 7 8 ^ 9 0 a _ b c d e f g ! .                                                     ",
"                          . . h d i j k l m n ! o p q r s } .                                                   ",
"                          . . t u v w x $ y s z q A q B C s } .                                                 ",
"                          . . e D l E F [ ^ G H I v v v B J > K .                                               ",
"                            . . L M H o * N O N I q v v v B P ) ! .                                             ",
"                            . . Q R P ^ S C h T N R q v v v B P U ! .                                           ",
"                              . . Q V . W X Y h 6 Z R q v v v B p ` ^ .                                         ",
"                                . ! d t r 4 4  ...] Z q q v v v B +.g K .                                       ",
"                                  . } u z @.4 4 Y h Q Z q q v v v B +.) K .                                     ",
"                                    . } = W r 4 4 Y Y S #.$.q v v v B +.g K .                                   ",
"                                      . } [ %.r 4 4 Y Y S &.$.q v v v B *.U ! .                                 ",
"                                        . ! =.%.r 4 4 Y Y -.;.$.I $.$.q >.,.'.! .                               ",
"                                          . } ).!.r 4 4 Y  .-.;.- q q ~.{.h ].3 ^.                              ",
"                                            . ^ [ /.r 4 4 Y Y Q (._.G t (.:.%.<.^                               ",
"                                              . ! ).[.r 4 4 Y h }./ 4 C {.w |.D 1..                             ",
"                                                . ! ` 2.r 4 4 C 8 W |.3.0 4.0 {.e .                             ",
"                                                  . K U 5.r 4 @.#.6.3.l l l 4.E :.&                             ",
"                                                    . K g 7.r r 8 8.9.l l l 4.3.c 0.                            ",
"                                                      . } ) ; +.S a.9.l l l l 3.b.3 .                           ",
"                                                        . ! g c.}.v 3.4.l l l 3.q g .                           ",
"                                                          . } d.+ P ~.l 9.3.3.I _.d.d                           ",
"                                                            . 3 } ^ ) e.f.g.h.8 3 . . .                         ",
"                                                                  . . . . i.. . . . e .                         ",
"                                                                        . . . . . . e .                         ",
"                                                                                . . . .                         ",
"                                                                                                                ",
"                                                                                                                ",
"                                                                                                                ",
"                                                                                                                ",
"                                                                                                                ",
"                                                                                                                ",
"                                                                                                                ",
"                                                                                                                ",
"                                                                                                                ",
"                                                                                                                ",
"                                                                                                                ",
"                                                                                                                "};
